# xmcd
#
# Track frame offsets: 
#        150
#        14158
#        26221
#        38649
#        50348
#        63240
#        74865
#        85165
#        97945
#        111345
#        123809
#        137109
#        149745
#        162502
#        172645
#
# Disc length: 2460 seconds
#
# Revision: 6
# Processed by: cddbd v1.5.2PL0 Copyright (c) Steve Scherf et al.
# Submitted via: ExactAudioCopy v0.99pb5
#
DISCID=d6099a0f
DTITLE=Various Artist - Classic Country - TL 626-20 - 1944 - 1949 - CD 1
DYEAR=2001
DGENRE=Country
TTITLE0=Tennessee Ernie Ford - Mule train
TTITLE1=Gene Autry - Buttons and bows
TTITLE2=Sons Of The Pioneers - Cool water
TTITLE3=George Morgan - Candy kisses
TTITLE4=Ernest Tubb - Have you ever been lonely? (Have you ever been b
TTITLE4=lue?)
TTITLE5=Eddy Arnold - Bouquet of roses
TTITLE6=Jimmie Davis - There's a new moon over my shoulder
TTITLE7=Tex Ritter - I'm wasting my tears on you
TTITLE8=Merle Travis - So round, so firm, so fully packed
TTITLE9=Leon Payne - I love you because
TTITLE10=Red Foley - Smoke on the water
TTITLE11=Jack Guthrie - Oklahoma hills
TTITLE12=Delmore Brothers - Blues stay away from me
TTITLE13=Margaret Whiting and Jimmy Wakely - Slipping around
TTITLE14=Bob Wills and His Texas Playboys - New San Antonio rose
EXTD=
EXTT0=
EXTT1=
EXTT2=
EXTT3=
EXTT4=
EXTT5=
EXTT6=
EXTT7=
EXTT8=
EXTT9=
EXTT10=
EXTT11=
EXTT12=
EXTT13=
EXTT14=
PLAYORDER=
